Patient4_TMGait_0pt4_01_right_37_EMG.mot
version=1
nRows=23
nColumns=33
inDegrees=no
endheader
time	1LAddLong	2LGlutMax	3LGlutMed	4LIliopsoas	5LSemiMemb	6LBicFemLong	7LRecFem	8LVastMed	9LVastLat	10LGasMed	11LTibAnt	12lTibPost	13LPeroneusLong	14LSol	15LExtDigLong	16LFlexDigLong	17RAddLong	18RGlutMax	19RGlutMed	20RIliopsoas	21RSemiMemb	22RBicFemLong	23RRecFem	24RVastMed	25RVastLat	26RGasMed	27RTibAnt	28RTibPost	29RPeroneusLong	30RSol	31RExtDigLong	32RFlexDigLong
49.18	-0.028687	0.091705	-0.042419	0.011444	-0.011444	-0.19012	0.25055	-0.005341	-0.066833	-0.056458	0.006409	0.041656	-0.41504	0.13779	-0.014954	0.00412	-0.022278	-0.006104	0.005646	0.054169	-0.10483	0.010986	-0.32623	-0.027313	0.017853	0.015411	-0.027313	0.049438	-0.168	0.59219	-0.003052	-0.012207
49.181	-0.030823	0.12924	-0.051422	0.003967	0.00061	-0.19409	0.21912	-0.003052	0.056915	-0.016479	0.018005	0.027008	-0.2681	-0.033264	-0.053101	-0.000916	0.048676	-0.059204	-0.011749	-0.016632	-0.31433	-0.16144	-0.32715	-0.13031	0.016327	0.023499	-0.019836	-0.08728	0.10925	0.17975	-0.006714	-0.019989
49.182	-0.040283	0.15823	-0.040436	0.027466	0.00885	-0.19928	0.14587	0.003662	0.10696	-0.068817	0.010071	0.018005	0.14603	-0.17822	-0.059509	0.001984	0.084076	-0.025024	-0.087128	-0.039825	-0.54749	-0.14374	-0.27847	-0.13809	-0.010223	-0.002441	0.005035	-0.085754	0.2565	-0.017395	-0.005798	-0.02121
49.183	-0.009766	0.19806	-0.059814	0.026245	-0.067291	-0.12512	0.093536	0.006104	0.041809	-0.075684	0.001526	0.003357	0.21561	-0.12619	-0.039063	0.003662	0.059509	0.050659	-0.1622	-0.092316	-0.21637	-0.24017	-0.32669	-0.10269	-0.00473	-0.029297	0.011902	-0.048828	0.33325	-0.10117	-0.001678	-0.024719
49.184	0.015411	0.20538	-0.10498	0.008698	0.002747	0.0177	0.086365	0.007782	-0.049286	-0.089722	0.003052	0.000305	-0.2475	0.1297	0.009613	-0.000916	0.005188	-0.007782	-0.22247	-0.08728	-0.013123	-0.19699	-0.33646	-0.13733	0.010223	-0.043335	0.009766	0.072479	0.16678	-0.27679	-0.003052	-0.019379
49.185	0.018005	0.22003	-0.062103	0.023193	-0.050049	0.067596	0.057983	-0.006866	-0.17639	-0.045471	-0.00885	-0.003052	-0.33554	0.26581	-0.035553	-0.01358	-0.03067	-0.034027	-0.16098	-0.033417	-0.062256	-0.10208	-0.3833	0.040131	0.043945	-0.049438	0.001526	0.065155	0.041504	-0.19943	0.000153	-0.016785
49.186	0.001068	0.23438	-0.021362	0.027161	-0.16617	0.055542	0.003357	-0.012054	-0.25024	-0.087585	-0.01236	-0.002594	-0.065002	0.36087	-0.0354	-0.036774	-0.038757	-0.045471	0.12558	0.019226	0.040436	-0.2066	-0.38025	0.06424	0.043945	0.046082	-0.03952	0.032043	0.003662	0.07309	-0.000763	-0.015106
49.187	-0.012817	0.25574	-0.058136	0.013885	-0.033569	0.080872	0.039063	-0.010071	-0.26001	-0.099182	0.008545	-0.011902	-0.056	0.32959	-0.019226	-0.0383	-0.026245	-0.053558	0.31891	0.049286	-0.041199	-0.22171	-0.3923	0.040436	0.033722	0.095367	-0.016937	0.00061	-0.089569	0.33127	-0.000305	-0.020142
49.188	-0.025024	0.25848	-0.044708	-0.009308	0.019684	0.059662	0.007782	-0.001068	-0.26321	-0.093079	0.005951	-0.007172	-0.10407	0.34866	0.01236	-0.029449	-0.047455	-0.030212	0.03006	0.050049	0.012512	0.11414	-0.36362	0.009766	0.023346	0.055695	-0.003052	-0.018158	-0.12589	0.58746	0.00061	-0.021362
49.189	-0.017853	0.27542	-0.081482	0.006866	0.0383	-0.005188	-0.037384	0.014191	-0.087738	-0.096893	0.007935	-0.010986	-0.21927	0.22476	0.005646	-0.036163	-0.07843	-0.040588	0.041504	0.006714	-0.02533	0.18143	-0.34042	0.10391	0.017242	0.035095	0.016937	-0.018616	-0.22385	0.42557	-0.003052	-0.022278
49.19	-0.004425	0.25909	-0.064545	-0.005035	-0.004578	-0.093842	-0.10071	0.005646	0.015411	-0.071106	0.005798	-0.021515	-0.17777	0.26001	-0.016937	-0.039368	-0.024414	-0.09491	0.079498	-0.056763	-0.028229	0.035248	-0.32394	0.043945	-0.00824	0.023499	-0.00061	-0.016785	-0.20706	0.06958	-0.003204	-0.018158
49.191	-0.006561	0.27603	-0.03891	0.009918	-0.069122	-0.17059	-0.18402	0.009308	0.072021	-0.060425	0.011444	-0.010223	0.12466	0.18524	-0.00824	-0.028076	0.011139	-0.087738	0.043335	-0.054779	0.054321	-0.083466	-0.35523	0.079041	-0.005493	0.015411	-0.006714	-0.021362	-0.18921	-0.085297	-0.001373	-0.011749
49.192	-0.007629	0.26169	0.058289	0.015106	-0.053711	-0.083466	-0.28549	0.013733	0.10132	-0.11047	0.010834	-0.012054	-0.015106	0.1767	-0.024719	-0.047455	0.063782	-0.10651	0.076904	-0.062408	0.11749	-0.088654	-0.37033	-0.037689	-0.013733	0.023346	-0.030365	-0.004578	0.030975	-0.078583	-0.003662	-0.006256
49.193	-0.008545	0.31082	0.14404	0.018616	0.032501	0.078583	-0.33432	0.020599	0.085449	0.015564	0.012512	-0.004425	0.058136	0.19134	0.005035	-0.039825	0.12375	-0.10956	0.053253	-0.093689	-0.086365	-0.10742	-0.28	-0.17838	-0.033417	0.020294	0.003357	0.007782	0.37354	-0.14526	-0.00473	-0.012207
49.194	-0.004425	0.30426	0.057068	0.007324	0.095215	0.1178	-0.36606	0.021973	0.037231	0.18448	0.000153	-0.000153	-0.042725	0.20401	0.016174	-0.046844	0.1387	-0.16953	0.11475	-0.18967	-0.55222	-0.04425	-0.29159	-0.24994	-0.04837	-0.001831	0.039978	-0.00473	0.30334	-0.084839	-0.001831	-0.011902
49.195	0.016937	0.25909	0.045471	0	0.11017	-0.057983	-0.3302	0.043945	-0.05722	0.25894	0.005341	0.000458	0.043945	0.17807	0.027466	-0.055847	0.16739	-0.2327	0.15595	-0.12375	-0.79529	0.016479	-0.26154	-0.25467	-0.011139	-0.040436	0.015564	-0.013123	0.076599	-0.11795	-0.003967	-0.00412
49.196	0.03006	0.2655	-0.059509	-0.006409	0.073242	-0.074921	-0.3273	-0.019989	-0.16266	-0.15427	-0.014801	0.006256	0.23209	0.18814	0.03952	-0.062866	0.10315	-0.26032	0.12405	-0.028839	-0.44128	0.071106	-0.33508	-0.097198	0.002441	-0.10147	0.015717	-0.009918	-0.2179	-0.07309	-0.005188	-0.011597
49.197	0.031281	0.20493	0.010223	0.002594	-0.021057	-0.044556	-0.37933	-0.023041	-0.11688	-0.09964	-0.001526	0.012512	0.392	0.12848	0.030823	-0.061035	-0.018768	-0.23865	0.15442	0.011139	0.044861	0.10849	-0.3685	0.061798	0.024872	-0.13107	0.030823	-0.006714	-0.29434	-0.082245	-0.003357	-0.020447
49.198	0.024567	0.19684	0.11002	-0.007629	-0.11765	0.083618	-0.43198	-0.011444	-0.12878	-0.27466	0.003052	0.013885	-0.070496	0.087433	0.023499	-0.054169	-0.10742	-0.38422	0.15854	0.12039	-0.21057	0.26566	-0.35889	0.16876	0.035706	-0.044556	-0.06073	-0.006866	-0.22415	-0.09201	-0.004578	-0.023193
49.199	0.013733	0.18036	0.11902	0.004272	-0.086517	0.29556	-0.4985	-0.032043	-0.18356	-0.41	0.014343	0.021667	0.21118	0.19562	0.088959	-0.06485	-0.1297	-0.4274	0.14618	0.22492	0.22186	0.19379	-0.38773	0.20432	0.01236	-0.016327	-0.054321	-0.005646	-0.1831	-0.12772	-0.003357	-0.026093
49.2	0.004272	0.13245	0.10147	0.015106	-0.034027	0.37109	-0.44342	-0.029449	-0.23315	-0.35675	0.014801	0.014343	0.15243	0.24384	0.11108	0.009918	-0.095215	-0.50888	0.23209	0.19821	0.34103	-0.084991	-0.36484	0.00824	-0.016327	0.053711	-0.050201	-0.001373	-0.1506	-0.10529	-0.003662	-0.025024
49.201	0.009003	0.16052	0.035706	-0.018463	-0.052338	0.20905	-0.39551	-0.026855	-0.24963	-0.041046	-0.040283	0.011902	-0.4216	0.11353	0.030518	-0.007324	-0.090332	-0.45059	0.23377	0.16632	0.11673	-0.20065	-0.3537	-0.059052	-0.018616	0.14099	-0.031738	-0.002899	-0.20142	-0.10864	-0.002136	-0.015869
49.202	0.011902	0.15656	-0.020905	-0.019073	-0.086212	0.12116	-0.43182	-0.032043	-0.28946	0.065002	-0.028076	0.01297	-0.93277	-0.33936	-0.13916	-0.18188	-0.061188	-0.48996	0.29175	0.22537	0.11032	-0.25375	-0.46173	-0.006866	-0.011139	0.055084	-0.001984	0.005646	-0.089111	-0.095215	-0.002747	-0.015259
